<?xml version="1.0" encoding="UTF-8" standalone="no"?>
<svg
   xmlns:dc="http://purl.org/dc/elements/1.1/"
   xmlns:cc="http://creativecommons.org/ns#"
   xmlns:rdf="http://www.w3.org/1999/02/22-rdf-syntax-ns#"
   xmlns:svg="http://www.w3.org/2000/svg"
   xmlns="http://www.w3.org/2000/svg"
   xmlns:sodipodi="http://sodipodi.sourceforge.net/DTD/sodipodi-0.dtd"
   xmlns:inkscape="http://www.inkscape.org/namespaces/inkscape"
   aria-label="Público"
   viewBox="0 0 91.5 97"
   id="svg2"
   version="1.1"
   inkscape:version="0.91 r13725"
   sodipodi:docname="logo_publico.svg"
   width="91.5"
   height="97">
  <metadata
     id="metadata10">
    <rdf:RDF>
      <cc:Work
         rdf:about="">
        <dc:format>image/svg+xml</dc:format>
        <dc:type
           rdf:resource="http://purl.org/dc/dcmitype/StillImage" />
        <dc:title></dc:title>
      </cc:Work>
    </rdf:RDF>
  </metadata>
  <defs
     id="defs8" />
  <sodipodi:namedview
     pagecolor="#ffffff"
     bordercolor="#666666"
     borderopacity="1"
     objecttolerance="10"
     gridtolerance="10"
     guidetolerance="10"
     inkscape:pageopacity="0"
     inkscape:pageshadow="2"
     inkscape:window-width="1680"
     inkscape:window-height="998"
     id="namedview6"
     showgrid="false"
     inkscape:zoom="1.3085938"
     inkscape:cx="128"
     inkscape:cy="48.5"
     inkscape:window-x="-8"
     inkscape:window-y="-8"
     inkscape:window-maximized="1"
     inkscape:current-layer="svg2" />
  <path
     d="m 49.8,0 c 27.3,0 41.7,8.4 41.7,29.3 0,15.7 -11.3,31 -34.8,31 -5.9,0 -9.9,-0.7 -11.6,-1.2 l 0,-4.8 C 56.2,51.4 60,48.9 60,30.1 60,12.3 57.5,6.3 47.8,6.3 c -5.6,0 -6.6,1.5 -6.6,7.8 l -0.1,65 c 0.1,8.8 0.3,9.2 11.4,11 L 52.5,97 0,97 0,90.1 c 9.8,-1.9 10.1,-2.3 10.1,-11 l 0,-61.2 C 10.1,9.3 9.6,8.7 0,6.9 L 0,0 49.8,0 Z M 16.7,49.9 c -2.4,0 -3.3,1.6 -3.3,4.7 l 0,5.7 0.5,0 0.1,-0.5 c 0.1,-0.5 0.2,-0.7 1.3,-0.7 l 7.1,0 c 1.1,0 1.2,0.2 1.3,0.7 l 0.1,0.5 0.6,0 0,-6 -0.6,0 -0.1,0.6 c -0.2,0.6 -0.2,0.7 -1.3,0.7 l -8.1,0 c -0.1,-0.1 -0.2,-0.4 -0.2,-0.7 0,-1.1 0.5,-1.4 2.7,-1.4 2,0 2.4,0.4 2.5,1.7 l 0.5,0 c 0.1,-0.2 0.3,-0.7 0.3,-1.3 0,-2.7 -1.7,-4 -3.4,-4 z m 7.3,-10.4 -0.4,0 -0.2,0.4 c -0.2,0.6 -0.3,0.6 -1.1,0.6 l -6.3,0 -0.2,0.2 0.4,3.9 0.4,0 0.3,-0.5 c 0.3,-0.5 0.4,-0.6 1.1,-0.6 l 4.7,0 c 0,0.3 0.2,0.7 0.2,1.2 0,0.6 -0.3,0.9 -1.3,0.9 l -5.6,0 -0.2,0.2 0.4,3.9 0.4,0 0.3,-0.5 c 0.4,-0.5 0.4,-0.6 1.1,-0.6 l 4.4,0 c 1.4,0 2.1,-0.8 2.1,-2 0,-1.3 -0.6,-2.2 -1.2,-3.2 l 1.1,0 0.1,-0.2 -0.5,-3.7 z m -10.3,3.3 c -0.6,0 -1.1,0.4 -1.1,1 0,0.3 0.1,0.6 0.4,0.9 l 1.9,1.9 0.3,-0.1 -0.5,-2.9 c -0.1,-0.5 -0.6,-0.8 -1,-0.8 z m 6,-12.9 c -2.8,0 -3.9,1.6 -3.9,3.1 0,1.2 0.6,2 1.2,2.7 l -2.5,0 c -1.1,0 -1.9,-0.1 -1.9,-0.1 l -0.1,0.2 0.3,4 0.4,0 0.3,-0.6 c 0.3,-0.4 0.4,-0.5 1.2,-0.5 l 8.8,0 c 0.7,-0.9 1,-2.2 1,-3.9 0,-2.8 -1.3,-4.9 -4.8,-4.9 z m 0.7,3.2 c 3,0 3.4,0.5 3.4,1.5 0,0.5 -0.2,0.9 -0.5,1.1 l -5.7,0 c 0,-0.2 -0.1,-0.5 -0.1,-1 0,-1.1 0.6,-1.6 2.9,-1.6 z m 4,-8.3 -0.6,0 0,0.2 c -0.2,0.7 -0.2,0.7 -1,0.7 l -8.3,0 c -1.1,0 -1.9,0 -1.9,0 l -0.1,0.2 0.3,4 0.4,0 0.3,-0.6 c 0.3,-0.5 0.4,-0.5 1.2,-0.5 l 8.1,0 c 0.7,0 0.8,0 1,0.7 l 0,0.3 0.6,0 0,-5 z m 0,-5.2 -0.6,0 0,0.3 c -0.2,0.6 -0.2,0.7 -1,0.7 l -4.9,0 c -0.7,0 -1.2,0 -1.9,-0.1 l -0.2,0.2 0.4,4 0.4,0 0.4,-0.5 c 0.3,-0.5 0.4,-0.6 1.1,-0.6 l 4.7,0 c 0.7,0 0.8,0.1 1,0.7 l 0,0.2 0.6,0 0,-4.9 z m -10.5,0.9 c -0.9,0 -1.5,0.8 -1.5,1.7 0,0.9 0.6,1.6 1.5,1.6 0.9,0 1.5,-0.7 1.5,-1.6 0,-0.9 -0.6,-1.7 -1.5,-1.7 z m 3.5,-8.7 c -1.1,0 -1.6,1.1 -1.6,2.7 0,2.4 1.1,5 4.4,5 2.7,0 4.3,-1.5 4.3,-4.1 0,-1.9 -0.9,-3.1 -1.5,-3.5 l -0.6,0 c 0.3,0.6 0.6,1.2 0.6,2.2 0,1.8 -1.3,2.4 -3.6,2.4 -2.5,0 -2.9,-0.9 -2.9,-1.6 0,-0.5 0.1,-0.5 0.7,-0.6 0.7,0 1.4,-0.3 1.4,-1.3 0,-0.7 -0.5,-1.2 -1.2,-1.2 z m 2.7,-9.2 c -2.9,0 -4.3,2.2 -4.3,4.5 0,2.2 1.2,4.5 4.4,4.5 3,0 4.3,-2.1 4.3,-4.5 0,-2.2 -1.2,-4.5 -4.4,-4.5 z m 0.2,3.2 c 3.3,0 3.5,0.6 3.5,1.3 0,0.9 -0.4,1.3 -3.9,1.3 -2.8,0 -3.4,-0.4 -3.4,-1.2 0,-0.9 0.4,-1.4 3.8,-1.4 z"
     id="path4"
     inkscape:connector-curvature="0"
     style="fill:#d20911" />
</svg>
